<?xml version="1.0" encoding="UTF-8" standalone="no"?>
<!-- Created with Inkscape (http://www.inkscape.org/) -->

<svg
   xmlns:dc="http://purl.org/dc/elements/1.1/"
   xmlns:cc="http://creativecommons.org/ns#"
   xmlns:rdf="http://www.w3.org/1999/02/22-rdf-syntax-ns#"
   xmlns:svg="http://www.w3.org/2000/svg"
   xmlns="http://www.w3.org/2000/svg"
   xmlns:sodipodi="http://sodipodi.sourceforge.net/DTD/sodipodi-0.dtd"
   xmlns:inkscape="http://www.inkscape.org/namespaces/inkscape"
   version="1.1"
   width="100%"
   height="100%"
   viewBox="0 0 25 23"
   id="Layer_1"
   xml:space="preserve"
   inkscape:version="0.48.5 r10040"
   sodipodi:docname="tunButton.svg"><sodipodi:namedview
     pagecolor="#ffffff"
     bordercolor="#666666"
     borderopacity="1"
     objecttolerance="10"
     gridtolerance="10"
     guidetolerance="10"
     inkscape:pageopacity="0"
     inkscape:pageshadow="2"
     inkscape:window-width="801"
     inkscape:window-height="480"
     id="namedview6"
     showgrid="false"
     inkscape:zoom="10.26087"
     inkscape:cx="5.0932203"
     inkscape:cy="11.5"
     inkscape:window-x="168"
     inkscape:window-y="117"
     inkscape:window-maximized="1"
     inkscape:current-layer="Layer_1" /><metadata
     id="metadata9"><rdf:RDF><cc:Work
         rdf:about=""><dc:format>image/svg+xml</dc:format><dc:type
           rdf:resource="http://purl.org/dc/dcmitype/StillImage" /><dc:title /></cc:Work></rdf:RDF></metadata><defs
     id="defs7" /><path
     style="fill:#ffffff;fill-opacity:1;fill-rule:nonzero;stroke:none"
     d="M 1.96875 0 C 0.87135198 -1.4802974e-16 0 0.87006086 0 1.96875 L 0 21.03125 C 0 22.129939 0.87135198 23 1.96875 23 L 23.03125 23 C 24.128648 23 25 22.129939 25 21.03125 L 25 1.96875 C 25 0.87006086 24.128648 0 23.03125 0 L 1.96875 0 z M 9.65625 3.5 L 15.34375 3.5 C 15.89775 3.5 16.34375 4.364125 16.34375 5.4375 L 16.34375 6.25 L 19.4375 6.25 C 19.9915 6.25 20.4375 6.750314 20.4375 7.40625 L 20.4375 19.46875 C 20.4375 20.124686 19.9915 20.65625 19.4375 20.65625 L 16.84375 20.65625 C 16.8454 20.634411 16.84375 20.616179 16.84375 20.59375 L 16.84375 14.59375 C 16.84375 14.229276 16.62075 13.9375 16.34375 13.9375 L 16.15625 13.9375 C 15.87925 13.9375 15.65625 14.229276 15.65625 14.59375 L 15.65625 20.59375 C 15.65625 20.61787 15.685596 20.632817 15.6875 20.65625 L 14.3125 20.65625 C 14.314404 20.632817 14.34375 20.61787 14.34375 20.59375 L 14.34375 14.59375 C 14.34375 14.229276 14.12075 13.9375 13.84375 13.9375 L 13.65625 13.9375 C 13.37925 13.9375 13.15625 14.229276 13.15625 14.59375 L 13.15625 20.59375 C 13.15625 20.61787 13.185596 20.632817 13.1875 20.65625 L 11.8125 20.65625 C 11.814404 20.632817 11.84375 20.61787 11.84375 20.59375 L 11.84375 14.59375 C 11.84375 14.229276 11.62075 13.9375 11.34375 13.9375 L 11.15625 13.9375 C 10.87925 13.9375 10.65625 14.229276 10.65625 14.59375 L 10.65625 20.59375 C 10.65625 20.61787 10.685596 20.632817 10.6875 20.65625 L 9.3125 20.65625 C 9.3144042 20.632817 9.34375 20.61787 9.34375 20.59375 L 9.34375 14.59375 C 9.34375 14.229276 9.12075 13.9375 8.84375 13.9375 L 8.65625 13.9375 C 8.37925 13.9375 8.15625 14.229276 8.15625 14.59375 L 8.15625 20.59375 C 8.15625 20.616179 8.1546004 20.634411 8.15625 20.65625 L 5.5625 20.65625 C 5.0085 20.65625 4.5625 20.124686 4.5625 19.46875 L 4.5625 7.40625 C 4.5625 6.750314 5.0085 6.25 5.5625 6.25 L 8.65625 6.25 L 8.65625 5.4375 C 8.65625 4.364125 9.10225 3.5 9.65625 3.5 z "
     id="rect3753" /></svg>